<?xml version="1.0" encoding="UTF-8"?> <svg xmlns="http://www.w3.org/2000/svg" xmlns:xlink="http://www.w3.org/1999/xlink" width="107.942" height="123.723" viewBox="0 0 107.942 123.723"><defs><clipPath id="clip-path"><rect width="107.942" height="123.723" fill="none"></rect></clipPath></defs><g id="Repeat_Grid_1" data-name="Repeat Grid 1" clip-path="url(#clip-path)"><g id="Group_935" data-name="Group 935"><g id="Group_250" data-name="Group 250"><g id="Group_249" data-name="Group 249" transform="translate(94.977 109.097)"><path id="Path_98" data-name="Path 98" d="M13182.648,5020.869a6.483,6.483,0,1,1,6.47,6.47A6.2,6.2,0,0,1,13182.648,5020.869Zm11.688,0a5.206,5.206,0,1,0-5.218,5.3A4.982,4.982,0,0,0,13194.336,5020.869Zm-7.748-3.78h3.355a2.117,2.117,0,0,1,2.21,2.236,2.092,2.092,0,0,1-1.385,2.05l1.624,2.9h-1.41l-1.571-2.742h-1.519v2.742h-1.3Zm1.3,1.171v2.1h1.784a.988.988,0,0,0,1.118-1.038,1,1,0,0,0-1.091-1.065Z" transform="translate(-13182.648 -5014.426)" fill="#7e997f"></path></g><path id="Path_99" data-name="Path 99" d="M13136.935,5016.292c-20.836,0-36.018-12.6-36.018-33.273a33.544,33.544,0,0,1,1.453-9.368c7.269,9.853,18.252,14.214,29.558,14.214,16.637,0,27.943-9.853,27.943-24.067,0-14.375-10.983-24.227-27.135-24.227a40.047,40.047,0,0,0-27.136,10.822,23.92,23.92,0,0,1-.161-3.392c0-18.252,13.405-29.235,31.98-29.235,14.646,0,24.828,7.953,29.1,19.587l12.264-6.082c-6.349-15.631-20.848-25.942-41.207-25.942-26.489,0-45.386,16.96-45.386,42a44.86,44.86,0,0,0,2.1,13.89,44.367,44.367,0,0,0-6.622,23.744c0,26.973,21,44.094,49.1,44.094,22.821,0,41.232-11.214,49.676-34.636l-12.6-4.1C13167.49,5008.434,13153.4,5016.292,13136.935,5016.292Zm-5.652-64.93c9.368,0,15.506,5.007,15.506,12.436s-6.138,12.276-15.506,12.276c-9.207,0-18.09-4.361-22.613-13.729A28.665,28.665,0,0,1,13131.282,4951.362Z" transform="translate(-13087.672 -4905.329)" fill="#7e997f"></path></g></g></g></svg> 